<svg width="50" height="50" viewBox="0 0 50 50" fill="none" xmlns="http://www.w3.org/2000/svg">
<mask id="mask0_6_2" style="mask-type:luminance" maskUnits="userSpaceOnUse" x="4" y="9" width="43" height="32">
<path d="M4 9L4 41L47 41L47 9L4 9Z" fill="white"/>
</mask>
<g mask="url(#mask0_6_2)">
<path d="M46.3797 26.5286C47.2115 25.6739 47.2115 24.2977 46.3797 23.4575L32.9157 9.6232C32.0839 8.7685 30.7446 8.7685 29.9269 9.6232C29.1092 10.4779 29.0951 11.8541 29.9269 12.6943L41.8964 24.993L29.9269 37.2918C29.0951 38.1465 29.0951 39.5227 29.9269 40.3629C30.7587 41.2176 32.098 41.2176 32.9157 40.3629L46.3797 26.5286ZM4 27.166L44.8852 27.166L44.8852 22.8201L4 22.8201L2 25L4 27.166Z" fill="black"/>
</g>
</svg>
