<svg width="50" height="50" viewBox="0 0 50 50" fill="none" xmlns="http://www.w3.org/2000/svg">
<g clip-path="url(#clip0_8_22)">
<mask id="mask0_8_22" style="mask-type:luminance" maskUnits="userSpaceOnUse" x="0" y="0" width="50" height="50">
<path d="M4.41805 0H45.5582C48.0048 0 49.9762 1.9715 49.9762 4.41805V45.5582C49.9762 48.0048 48.0048 49.9762 45.5582 49.9762H4.41805C1.9715 50 0 48.0047 0 45.5819V4.41805C0 1.9715 1.9715 0 4.41805 0Z" fill="white"/>
</mask>
<g mask="url(#mask0_8_22)">
<path d="M46.6746 0H3.32542C1.49644 0 0 1.49644 0 3.32542V46.6746C0 48.5036 1.49644 50 3.32542 50H46.6746C48.5036 50 50 48.5036 50 46.6746V3.32542C50 1.49644 48.5036 0 46.6746 0Z" fill="white"/>
<path d="M9.92871 12.7791H14.1092V14.2756H11.5202V17.0071H13.3729V18.5036H11.5202V21.6152H14.0855V23.1829H9.92871V12.7791Z" fill="#1A1A1A"/>
<path d="M16.2233 12.7791L17.1734 18.9311C17.2684 19.4775 17.3397 20.19 17.3397 21.0689V21.2589C17.3634 20.1901 17.4347 19.43 17.5059 18.9074L18.4323 12.7554H20L18.171 23.1354H16.4846L14.6318 12.7554L16.2233 12.7791Z" fill="#1A1A1A"/>
<path d="M20.9976 12.7791H25.1781V14.2756H22.589V17.0071H24.4417V18.5036H22.589V21.6152H25.1543V23.1829H20.9976V12.7791Z" fill="#1A1A1A"/>
<path d="M27.9809 23.1592H26.3657V12.7791H28.7173C30.4512 12.7791 31.2113 13.658 31.2113 15.772C31.2113 17.0071 30.95 17.791 30.19 18.3373L31.3776 23.1592H29.7149L28.741 18.7886H27.9809V23.1592ZM27.9809 17.2922H28.6223C29.4061 17.2922 29.5961 16.8646 29.5961 15.7245C29.5961 14.5843 29.3348 14.2756 28.551 14.2756H27.9809V17.2922Z" fill="#1A1A1A"/>
<path d="M33.159 12.7791L34.2042 16.9359H34.2992L35.2731 12.7791H36.912L35.0355 18.8599V23.1592H33.4203V19.0262L31.4963 12.7554H33.159V12.7791Z" fill="#1A1A1A"/>
<path d="M11.4728 25.867L12.1853 32.019C12.2329 32.5416 12.2804 33.0642 12.2804 33.658V33.8718C12.3279 32.8029 12.3754 32.114 12.4229 31.829L13.2067 25.8908H14.5844L15.4395 32.0428C15.5108 32.5653 15.5345 33.1829 15.5345 33.8718C15.582 32.9929 15.6058 32.3278 15.677 31.829L16.3421 25.8908H17.8623L16.2471 36.2708H14.9169L14.0381 30.2376C13.9906 29.8338 13.9431 29.2162 13.9431 28.4086C13.8956 29.5487 13.8481 30.2138 13.8005 30.4513L12.9454 36.2708H11.6153L9.97632 25.8908H11.4728V25.867Z" fill="#1A1A1A"/>
<path d="M20.3563 25.867V30.095H21.9715V25.867H23.5867V36.2471H21.9715V31.5915H20.3563V36.2471H18.7649V25.867H20.3563Z" fill="#1A1A1A"/>
<path d="M25.2019 25.867H29.3824V27.3634H26.8171V30.095H28.6698V31.5915H26.8171V34.6794H29.3824V36.2471H25.2019V25.867Z" fill="#1A1A1A"/>
<path d="M32.209 36.2471H30.5938V25.867H32.9453C34.6793 25.867 35.4394 26.7459 35.4394 28.8599C35.4394 30.095 35.1781 30.8789 34.418 31.4252L35.6056 36.2471H33.9429L32.969 31.8765H32.209V36.2471ZM32.209 30.3801H32.8503C33.6341 30.3801 33.8242 29.9525 33.8242 28.8124C33.8242 27.6722 33.5629 27.3634 32.779 27.3634H32.209V30.3801Z" fill="#1A1A1A"/>
<path d="M36.7458 25.867H40.9264V27.3634H38.3611V30.095H40.2138V31.5915H38.3611V34.6794H40.9264V36.2471H36.7458V25.867Z" fill="#1A1A1A"/>
<path d="M38.3611 12.7791H39.7625V13.2067H39.2874V15.7482H38.8361V13.2067H38.3611V12.7791Z" fill="#1A1A1A"/>
<path d="M39.9763 12.7791H40.5939L40.9027 14.4181C40.9264 14.5606 40.9502 14.7031 40.9502 14.8694C40.9502 14.7269 40.9739 14.5606 40.9977 14.4181L41.2827 12.7791H41.9003V15.7482H41.4728V13.8718C41.4728 13.7767 41.4728 13.6105 41.4965 13.3492C41.4728 13.5392 41.449 13.6817 41.4252 13.7767L41.0452 15.7482H40.8077L40.4514 13.7767C40.4039 13.5392 40.3801 13.3967 40.3801 13.3492C40.4039 13.563 40.4039 13.753 40.4039 13.8718V15.7482H39.9763V12.7791Z" fill="#1A1A1A"/>
</g>
</g>
<defs>
<clipPath id="clip0_8_22">
<rect width="50" height="50" fill="white"/>
</clipPath>
</defs>
</svg>
